<svg width="37" height="42" viewBox="0 0 37 42" fill="none" xmlns="http://www.w3.org/2000/svg">
<g clip-path="url(#clip0_2_86)">
<path d="M18.5 30.9045L26.5387 28.5467L29.8972 40.5263L18.5 30.9045ZM37 15.4204H22.8498L18.5 0L14.1503 15.4204H0L11.4524 24.9786L7.10266 40.3989L18.5551 30.8408L25.6028 24.9786L37 15.4204Z" fill="#FFB400"/>
<mask id="mask0_2_86" style="mask-type:luminance" maskUnits="userSpaceOnUse" x="18" y="0" width="38" height="42">
<path d="M55.5 0H18.5V42H55.5V0Z" fill="white"/>
</mask>
<g mask="url(#mask0_2_86)">
<path d="M18.5 30.9045L26.5387 28.5467L29.8972 40.5263L18.5 30.9045ZM37 15.4204H22.8498L18.5 0L14.1503 15.4204H0L11.4524 24.9786L7.10266 40.3989L18.5551 30.8408L25.6028 24.9786L37 15.4204Z" fill="#808080"/>
</g>
</g>
<defs>
<clipPath id="clip0_2_86">
<rect width="37" height="42" fill="white"/>
</clipPath>
</defs>
</svg>
